<svg xmlns="http://www.w3.org/2000/svg" viewBox="0 0 940 390" width="940" height="390" fill="none">
<rect x="1" y="1" width="938" height="388" rx="14" fill="#0d1117" stroke="#30363d"/>
<text x="28" y="34" fill="#f0f6fc" font-family="-apple-system,BlinkMacSystemFont,'Segoe UI',sans-serif" font-size="15" font-weight="700">Engineering Showcase</text><text x="910" y="34" text-anchor="end" fill="#8b949e" font-family="monospace" font-size="10">SELECTED SYSTEMS • MEASURABLE OUTCOMES</text><line x1="28" y1="48" x2="912" y2="48" stroke="#21262d"/>
<g transform="translate(28 74)">
<g><rect width="420" height="118" rx="10" fill="#161b22" stroke="#30363d"/><text x="18" y="27" fill="#f0f6fc" font-family="-apple-system,sans-serif" font-size="14" font-weight="700">🛡 Aegis Command</text><text x="18" y="51" fill="#8b949e" font-family="-apple-system,sans-serif" font-size="11">AI-assisted tactical intelligence fusion</text><rect x="18" y="71" width="105" height="26" rx="13" fill="#0d1117" stroke="#30363d"/><text x="70" y="88" text-anchor="middle" fill="#79c0ff" font-family="monospace" font-size="10">Top 14 / 2000+</text><text x="18" y="110" fill="#8b949e" font-family="monospace" font-size="10">YOLOv8 · FAISS · FastAPI · Next.js</text></g>
<g transform="translate(464 0)"><rect width="420" height="118" rx="10" fill="#161b22" stroke="#30363d"/><text x="18" y="27" fill="#f0f6fc" font-family="-apple-system,sans-serif" font-size="14" font-weight="700">🎓 CampusIQ</text><text x="18" y="51" fill="#8b949e" font-family="-apple-system,sans-serif" font-size="11">Academic analytics with provider-based architecture</text><rect x="18" y="71" width="102" height="26" rx="13" fill="#0d1117" stroke="#30363d"/><text x="69" y="88" text-anchor="middle" fill="#7ee787" font-family="monospace" font-size="10">ACTIVE BUILD</text><text x="18" y="110" fill="#8b949e" font-family="monospace" font-size="10">Next.js · Prisma · PostgreSQL · Auth.js</text></g>
<g transform="translate(0 140)"><rect width="420" height="118" rx="10" fill="#161b22" stroke="#30363d"/><text x="18" y="27" fill="#f0f6fc" font-family="-apple-system,sans-serif" font-size="14" font-weight="700">📚 ArXiv Intelligence</text><text x="18" y="51" fill="#8b949e" font-family="-apple-system,sans-serif" font-size="11">Semantic search across ML research literature</text><rect x="18" y="71" width="116" height="26" rx="13" fill="#0d1117" stroke="#30363d"/><text x="76" y="88" text-anchor="middle" fill="#79c0ff" font-family="monospace" font-size="10">30m → &lt;3s boot</text><text x="18" y="110" fill="#8b949e" font-family="monospace" font-size="10">15,000 papers · FAISS · BART · KeyBERT</text></g>
<g transform="translate(464 140)"><rect width="420" height="118" rx="10" fill="#161b22" stroke="#30363d"/><text x="18" y="27" fill="#f0f6fc" font-family="-apple-system,sans-serif" font-size="14" font-weight="700">🧠 StudyForge AI</text><text x="18" y="51" fill="#8b949e" font-family="-apple-system,sans-serif" font-size="11">Raw documents → notes, quizzes &amp; flashcards</text><rect x="18" y="71" width="114" height="26" rx="13" fill="#0d1117" stroke="#30363d"/><text x="75" y="88" text-anchor="middle" fill="#d2a8ff" font-family="monospace" font-size="10">AI WORKFLOW</text><text x="18" y="110" fill="#8b949e" font-family="monospace" font-size="10">FastAPI · Next.js · Gemini · PDF pipeline</text></g>
</g>
<g transform="translate(28 356)"><circle cx="5" cy="0" r="4" fill="#3fb950"/><text x="16" y="4" fill="#8b949e" font-family="monospace" font-size="10">Build systems. Measure bottlenecks. Ship improvements.</text></g>
</svg>